<?xml version="1.0" encoding="utf-8"?>
<!-- Generator: Adobe Illustrator 25.3.0, SVG Export Plug-In . SVG Version: 6.00 Build 0)  -->
<svg version="1.1" id="Calque_2" xmlns="http://www.w3.org/2000/svg" xmlns:xlink="http://www.w3.org/1999/xlink" x="0px" y="0px"
	 viewBox="0 0 816.6 485.2" style="enable-background:new 0 0 816.6 485.2;" xml:space="preserve">
<style type="text/css">
	.st0{fill:#FFFFFF;stroke:#000000;stroke-miterlimit:10;}
</style>
<g id="Calque_1-2">
	<g>
		<g id="Calque_2-2">
			<g>
				<path class="st0" d="M183.8,147.4c-71.7,0-130,49.7-130,110.8c0,2.1,0.1,4.3,0.2,6.4h27.5c-0.2-2.1-0.3-4.3-0.3-6.4
					c0-29.2,19.6-56.4,49.1-71.1v77.6h27.4v-79h52.1v79h21.5c1.2-8.4,3.2-16.6,5.9-24.5v-53.1c7.7,3.8,14.7,8.4,20.9,13.8
					c5.4-7.3,11.5-14.2,18.2-20.4C252.8,160,220,147.4,183.8,147.4L183.8,147.4z"/>
				<circle class="st0" cx="184.9" cy="51.5" r="50.5"/>
				<path class="st0" d="M618.8,147.4c-35.3,0-67.3,12.1-90.7,31.6c6.8,6.1,13,12.9,18.6,20.1c5.6-4.6,11.8-8.6,18.6-12v43.8
					c4.6,10.7,7.8,22.1,9.5,33.8h18v-79h52.1v79h27.4v-77.6c29.5,14.6,49.1,41.1,49.1,71.1c0,2.2-0.1,4.3-0.3,6.4h27.5
					c0.2-2.1,0.2-4.3,0.2-6.4C748.8,197.1,690.4,147.4,618.8,147.4L618.8,147.4z"/>
				<circle class="st0" cx="619.9" cy="51.6" r="50.5"/>
				<path class="st0" d="M526.3,222.3c-5.4-7.8-11.6-14.9-18.8-21.4c-26.1-24-63.3-38.9-104.5-38.9s-80.5,15.8-106.7,40.9
					c-7.1,6.7-13.3,14.2-18.5,22.1c-7.8,12.1-13.4,25.4-16,39.6h30.9c3.1-11.9,9.1-22.9,17.4-32.5c8.8-10.6,20.5-19.7,34.1-26.4v59
					h30.1V204h57.4v60.6h30.1v-59c12.3,6.1,23,14.1,31.7,23.4c9.5,10.4,16.4,22.5,19.9,35.6h30.9
					C541.4,249.4,535.2,235.1,526.3,222.3L526.3,222.3z"/>
				<path class="st0" d="M404.2,112c30.6,0,55.5-24.9,55.5-55.5S434.8,1,404.2,1s-55.5,24.9-55.5,55.5S373.6,112,404.2,112z"/>
			</g>
		</g>
		<g>
			<path class="st0" d="M132.7,323.5h36.9v155.3h-36.2l-1.9-22.7c-8.8,18.3-33.1,27.1-50.4,27.4c-46,0.3-80-28-80-82.5
				c0-53.5,35.6-81.6,81-81.3c20.8,0,40.6,9.8,49.5,25.2L132.7,323.5L132.7,323.5z M39.4,401c0,29.6,20.5,47.2,46,47.2
				c60.5,0,60.5-94.2,0-94.2C59.9,354.1,39.4,371.4,39.4,401z"/>
			<path class="st0" d="M303.4,364.8c-11-10.4-23.6-13.9-38.4-13.9c-18.3,0-28.4,5.7-28.4,15.4c0,10.1,9.1,15.8,29,17
				c29.3,1.9,66.5,8.5,66.5,49.8c0,27.4-22.4,51-66.8,51c-24.6,0-49.1-4.1-71.8-27.7l18.9-27.4c11,12.3,36.2,21.4,53.5,21.7
				c14.5,0.3,28-7.2,28-18.6c0-10.7-8.8-15.1-30.9-16.4c-29.3-2.2-64.3-12.9-64.3-48.2c0-35.9,37.2-48.5,65.5-48.5
				c24.3,0,42.5,4.7,60.5,20.5L303.4,364.8L303.4,364.8z"/>
			<path class="st0" d="M458.1,364.8c-11-10.4-23.6-13.9-38.4-13.9c-18.3,0-28.4,5.7-28.4,15.4c0,10.1,9.1,15.8,29,17
				c29.3,1.9,66.5,8.5,66.5,49.8c0,27.4-22.4,51-66.8,51c-24.6,0-49.1-4.1-71.8-27.7l18.9-27.4c11,12.3,36.2,21.4,53.5,21.7
				c14.5,0.3,28-7.2,28-18.6c0-10.7-8.8-15.1-30.9-16.4c-29.3-2.2-64.3-12.9-64.3-48.2c0-35.9,37.2-48.5,65.5-48.5
				c24.3,0,42.5,4.7,60.5,20.5L458.1,364.8L458.1,364.8z"/>
			<path class="st0" d="M665.7,401.4c0,44.7-30.6,81-81,81s-80.6-36.2-80.6-81c0-44.4,30.9-81,80.3-81S665.7,356.9,665.7,401.4z
				 M542.5,401.4c0,23.6,14.2,45.7,42.2,45.7c28,0,42.2-22,42.2-45.7c0-23.3-16.4-46-42.2-46C557,355.4,542.5,378,542.5,401.4z"/>
			<path class="st0" d="M730.6,351.9V305h38.1v46.9h46.9v35h-46.9v47.2h-38.1v-47.2h-46.3v-35H730.6z"/>
		</g>
	</g>
</g>
</svg>
