<?xml version="1.0" encoding="UTF-8"?>
<svg id="Calque_2" data-name="Calque 2" xmlns="http://www.w3.org/2000/svg" viewBox="0 0 816.63 485.2">
  <defs>
    <style>
      .cls-1, .cls-2 {
        fill: none;
        stroke: #fff;
        stroke-miterlimit: 10;
        stroke-width: 2px;
      }

      .cls-2 {
        fill-rule: evenodd;
      }
    </style>
  </defs>
  <g id="Calque_1-2" data-name="Calque 1">
    <g>
      <g id="Calque_2-2" data-name="Calque 2-2">
        <g>
          <path class="cls-2" d="m183.82,147.39c-71.66,0-129.99,49.73-129.99,110.85,0,2.15.07,4.3.22,6.43h27.52c-.21-2.13-.32-4.28-.32-6.43,0-29.24,19.59-56.45,49.07-71.14v77.57h27.35v-79h52.15v79h21.51c1.21-8.4,3.2-16.6,5.92-24.52v-53.05c7.68,3.84,14.69,8.44,20.87,13.79,5.36-7.31,11.46-14.16,18.24-20.42-23.58-20.42-56.36-33.08-92.54-33.08Z"/>
          <circle class="cls-1" cx="184.91" cy="51.5" r="50.49"/>
          <path class="cls-2" d="m618.8,147.39c-35.27,0-67.3,12.05-90.74,31.57,6.85,6.1,13.04,12.89,18.62,20.12,5.57-4.6,11.83-8.59,18.61-11.99v43.78c4.56,10.73,7.78,22.07,9.46,33.79h17.97v-79h52.14v79h27.36v-77.57c29.46,14.62,49.13,41.08,49.13,71.14,0,2.16-.1,4.31-.3,6.43h27.51c.15-2.13.22-4.28.22-6.43,0-61.12-58.33-110.85-129.99-110.85Z"/>
          <circle class="cls-1" cx="619.85" cy="51.59" r="50.49" transform="translate(4.73 143.77) rotate(-13.28)"/>
          <path class="cls-2" d="m526.33,222.3c-5.36-7.77-11.61-14.93-18.77-21.41-26.15-23.97-63.3-38.88-104.53-38.88s-80.48,15.82-106.7,40.92c-7.09,6.7-13.26,14.16-18.47,22.15-7.83,12.12-13.35,25.45-15.99,39.59h30.85c3.15-11.86,9.13-22.86,17.4-32.51,8.82-10.63,20.5-19.67,34.06-26.45v58.95h30.14v-60.62h57.35v60.62h30.14v-59.03c12.28,6.1,22.99,14.09,31.66,23.43,9.52,10.39,16.42,22.47,19.87,35.59h30.86c-2.84-15.24-9.02-29.57-17.88-42.37Z"/>
          <path class="cls-2" d="m404.25,112.04c30.6,0,55.46-24.87,55.46-55.46S434.84,1.04,404.25,1.04s-55.54,24.87-55.54,55.54,24.87,55.46,55.54,55.46Z"/>
        </g>
      </g>
      <g>
        <path class="cls-1" d="m132.68,323.55h36.86s0,155.3,0,155.3h-36.23s-1.89-22.68-1.89-22.68c-8.82,18.27-33.08,27.09-50.4,27.41-45.99.31-80.01-28.04-80.01-82.53,0-53.55,35.6-81.59,80.96-81.27,20.79,0,40.64,9.77,49.46,25.2l1.26-21.42Zm-93.24,77.49c0,29.61,20.48,47.25,45.99,47.25,60.48,0,60.48-94.19,0-94.19-25.52,0-45.99,17.32-45.99,46.94Z"/>
        <path class="cls-1" d="m303.41,364.81c-11.03-10.4-23.63-13.86-38.43-13.86-18.27,0-28.35,5.67-28.35,15.44,0,10.08,9.14,15.75,28.98,17.01,29.3,1.89,66.47,8.51,66.47,49.77,0,27.41-22.37,51.03-66.78,51.03-24.57,0-49.14-4.1-71.82-27.72l18.9-27.41c11.03,12.29,36.23,21.42,53.55,21.74,14.49.32,28.04-7.25,28.04-18.58,0-10.71-8.82-15.12-30.87-16.38-29.3-2.21-64.26-12.92-64.26-48.2,0-35.91,37.17-48.51,65.52-48.51,24.26,0,42.53,4.73,60.48,20.48l-21.42,25.2Z"/>
        <path class="cls-1" d="m458.09,364.81c-11.03-10.4-23.63-13.86-38.43-13.86-18.27,0-28.35,5.67-28.35,15.44,0,10.08,9.14,15.75,28.98,17.01,29.3,1.89,66.47,8.51,66.47,49.77,0,27.41-22.37,51.03-66.78,51.03-24.57,0-49.14-4.1-71.82-27.72l18.9-27.41c11.03,12.29,36.23,21.42,53.55,21.74,14.49.32,28.04-7.25,28.04-18.58,0-10.71-8.82-15.12-30.87-16.38-29.3-2.21-64.26-12.92-64.26-48.2,0-35.91,37.17-48.51,65.52-48.51,24.26,0,42.53,4.73,60.48,20.48l-21.42,25.2Z"/>
        <path class="cls-1" d="m665.68,401.36c0,44.73-30.56,80.96-80.96,80.96-50.4,0-80.64-36.23-80.64-80.96,0-44.42,30.87-80.96,80.33-80.96,49.46,0,81.27,36.54,81.27,80.96Zm-123.17,0c0,23.63,14.18,45.68,42.21,45.68,28.04,0,42.21-22.05,42.21-45.68,0-23.31-16.38-45.99-42.21-45.99-27.72,0-42.21,22.68-42.21,45.99Z"/>
        <path class="cls-1" d="m730.57,351.9v-46.94s38.12,0,38.12,0v46.94s46.94,0,46.94,0v34.97s-46.94,0-46.94,0v47.25s-38.12,0-38.12,0v-47.25s-46.31,0-46.31,0v-34.97s46.31,0,46.31,0Z"/>
      </g>
    </g>
  </g>
</svg>