<?xml version="1.0" encoding="utf-8"?>
<svg xmlns="http://www.w3.org/2000/svg" viewBox="0 0 24 24" width="96" height="96">
  <path d="M19.343,8.828C19.764,9.801,20,10.872,20,12c0,4.418-3.582,8-8,8s-8-3.582-8-8s3.582-8,8-8c2.551,0,4.819,1.199,6.284,3.059l1.427-1.427C17.876,3.414,15.103,2,12,2C6.477,2,2,6.477,2,12c0,5.523,4.477,10,10,10s10-4.477,10-10c0-1.687-0.422-3.275-1.16-4.669L19.343,8.828z" fill="#2396E9" />
  <path d="M15.981,12.19C15.879,14.309,14.144,16,12,16c-2.209,0-4-1.791-4-4c0-2.209,1.791-4,4-4c1.45,0,2.708,0.779,3.409,1.933l1.447-1.447C15.766,6.982,14,6,12,6c-3.314,0-6,2.686-6,6s2.686,6,6,6s6-2.686,6-6c0-0.557-0.082-1.094-0.224-1.605L15.981,12.19z" fill="#2396E9" />
  <path d="M10.429 6.207H23.157V8.207H10.429z" transform="rotate(-45.001 16.793 7.207)" fill="#2396E9" />
  <path d="M12 10A2 2 0 1 0 12 14A2 2 0 1 0 12 10Z" fill="#2396E9" />
  <path d="M17.775,10.389C17.918,10.903,18,11.441,18,12c0,3.314-2.686,6-6,6s-6-2.686-6-6s2.686-6,6-6c1.998,0,3.763,0.981,4.853,2.482l1.427-1.427C16.816,5.197,14.55,4,12,4c-4.418,0-8,3.582-8,8s3.582,8,8,8s8-3.582,8-8c0-1.129-0.237-2.203-0.659-3.177L17.775,10.389z" opacity=".3" fill="#2396E9" />
  <path d="M12,8c-2.209,0-4,1.791-4,4c0,2.209,1.791,4,4,4s4-1.791,4-4C16,9.791,14.209,8,12,8z M12,14c-1.105,0-2-0.895-2-2c0-1.105,0.895-2,2-2s2,0.895,2,2C14,13.105,13.105,14,12,14z" opacity=".3" fill="#2396E9" />
</svg>